<svg width="115" height="101" viewBox="0 0 115 101" fill="none" xmlns="http://www.w3.org/2000/svg">
<line x1="8.5" y1="-8.5" x2="67.294" y2="-8.5" transform="matrix(0.746393 -0.665505 0.762268 0.647261 35.7844 81.7302)" stroke="#B2DAC0" stroke-width="17" stroke-linecap="round"/>
<line x1="8.5" y1="-8.5" x2="67.294" y2="-8.5" transform="matrix(0.746393 -0.665505 0.762268 0.647261 35.7844 81.7302)" stroke="#B2DAC0" stroke-width="17" stroke-linecap="round"/>
<line x1="8.5" y1="-8.5" x2="67.294" y2="-8.5" transform="matrix(0.746393 -0.665505 0.762268 0.647261 35.7844 81.7302)" stroke="#B2DAC0" stroke-width="17" stroke-linecap="round"/>
<line x1="8.5" y1="-8.5" x2="67.5502" y2="-8.5" transform="matrix(0.762268 0.647261 -0.746393 0.665505 21.6511 32.04)" stroke="#B2DAC0" stroke-width="17" stroke-linecap="round"/>
<line x1="8.5" y1="-8.5" x2="67.5502" y2="-8.5" transform="matrix(0.762268 0.647261 -0.746393 0.665505 21.6511 32.04)" stroke="#B2DAC0" stroke-width="17" stroke-linecap="round"/>
<line x1="8.5" y1="-8.5" x2="67.5502" y2="-8.5" transform="matrix(0.762268 0.647261 -0.746393 0.665505 21.6511 32.04)" stroke="#B2DAC0" stroke-width="17" stroke-linecap="round"/>
</svg>
